<?xml version="1.0" standalone="no"?>
<!DOCTYPE svg PUBLIC "-//W3C//DTD SVG 20010904//EN"
 "http://www.w3.org/TR/2001/REC-SVG-20010904/DTD/svg10.dtd">
<svg version="1.0" xmlns="http://www.w3.org/2000/svg"
 width="212.000000pt" height="212.000000pt" viewBox="0 0 212.000000 212.000000"
 preserveAspectRatio="xMidYMid meet">
<metadata>
Created by potrace 1.14, written by Peter Selinger 2001-2017
</metadata>
<g transform="translate(0.000000,212.000000) scale(0.100000,-0.100000)"
fill="#000000" stroke="none">
<path d="M1000 1593 c-45 -40 -45 -96 -1 -135 28 -25 39 -28 101 -28 61 0 70
-2 70 -18 0 -10 -18 -36 -41 -57 -76 -74 -88 -127 -40 -176 22 -21 39 -29 66
-29 31 0 46 9 94 55 79 75 91 73 91 -14 0 -37 5 -82 11 -99 23 -66 100 -83
150 -33 l29 29 0 236 c0 234 0 235 -24 263 l-24 28 -225 3 -226 3 -31 -28z"/>
<path d="M650 1589 c-60 -24 -60 -24 -59 -371 0 -342 3 -367 56 -473 32 -61
122 -151 189 -187 177 -95 393 -68 545 69 48 43 99 123 99 154 0 36 -36 89
-62 91 -13 0 -30 2 -38 3 -20 2 -60 -16 -60 -26 0 -5 -26 -35 -58 -68 -47 -48
-69 -63 -116 -76 -111 -32 -222 -1 -297 83 -66 75 -70 101 -70 436 1 198 -3
304 -11 320 -6 14 -25 32 -43 41 -38 17 -41 17 -75 4z"/>
</g>
</svg>
